Coordinates
version=1
nRows=5
nColumns=40
inDegrees=yes

Units are S.I. units (second, meters, Newtons, ...)
Angles are in degrees.

endheader
time	pelvis_tilt	pelvis_list	pelvis_rotation	pelvis_tx	pelvis_ty	pelvis_tz	hip_flexion_r	hip_adduction_r	hip_rotation_r	knee_angle_r	knee_angle_r_beta	ankle_angle_r	subtalar_angle_r	mtp_angle_r	hip_flexion_l	hip_adduction_l	hip_rotation_l	knee_angle_l	knee_angle_l_beta	ankle_angle_l	subtalar_angle_l	mtp_angle_l	lumbar_extension	lumbar_bending	lumbar_rotation	arm_flex_r	arm_add_r	arm_rot_r	elbow_flex_r	pro_sup_r	wrist_flex_r	wrist_dev_r	arm_flex_l	arm_add_l	arm_rot_l	elbow_flex_l	pro_sup_l	wrist_flex_l	wrist_dev_l
     47.10014286	     -5.79342877	     -3.96579457	     -4.31596113	      1.01839369	      0.93461951	      0.45728492	     38.90049072	     -5.29647840	     -5.67446547	     62.92452947	     62.92452947	     -3.24333531	    -11.67470773	     -1.92100622	      9.91971809	     -3.34349638	     -5.96444102	     17.67093861	     17.67093861	     15.72976667	     -9.60959055	      3.81571850	    -13.52161890	      7.16786242	      2.51099887	     -6.65811772	    -16.66726063	     -5.57591738	     34.47450049	     46.44701159	      0.00000000	      0.00000000	      0.25217774	    -15.85109540	     -3.12014463	     97.09591900	     47.65369225	      0.00000000	      0.00000000
     47.11278571	     -5.63387210	     -3.78269065	     -4.46945925	      1.01783585	      0.93527492	      0.45710021	     38.96366146	     -5.47110231	     -5.90655680	     59.77280250	     59.77280250	     -2.71566473	    -10.62223045	     -2.13218308	      8.76413317	     -2.99813070	     -6.02020850	     16.75276147	     16.75276147	     15.77592212	     -9.61678845	      4.09304459	    -13.75943187	      6.98139923	      2.35302498	     -6.68623659	    -16.45342050	     -5.40371269	     34.49426421	     46.42545799	      0.00000000	      0.00000000	      1.12887502	    -15.85903195	     -3.12646455	     98.48291799	     47.70189668	      0.00000000	      0.00000000
     47.12542857	     -5.66561799	     -3.67605003	     -4.54636087	      1.01712018	      0.93554887	      0.45694316	     38.99940646	     -5.54149361	     -6.22220808	     56.15386290	     56.15386290	     -2.20768573	     -9.56916782	     -2.08614473	      7.97850428	     -2.77992439	     -6.05006131	     16.10867228	     16.10867228	     15.89752568	     -9.54471448	      4.23200483	    -13.75685953	      6.93729456	      2.12620996	     -6.57442472	    -16.17917524	     -5.30069899	     34.61258281	     46.41145788	      0.00000000	      0.00000000	      2.15753886	    -15.88804339	     -3.15214545	     99.39306768	     47.73254980	      0.00000000	      0.00000000
     47.13807143	     -5.36056772	     -3.43509771	     -4.62932078	      1.01683234	      0.93619248	      0.45670959	     38.40322688	     -5.83516603	     -6.62148261	     52.10215928	     52.10215928	     -1.58676660	     -7.88567301	     -2.38005802	      6.59539776	     -2.32581144	     -6.00281128	     15.05812843	     15.05812843	     15.94439676	     -9.51506614	      4.65439292	    -14.18153623	      6.70216572	      2.05253524	     -6.63575570	    -16.07909446	     -5.16764116	     34.78102234	     46.38927038	      0.00000000	      0.00000000	      3.01833633	    -15.80867053	     -2.99747219	    100.85552327	     47.76764729	      0.00000000	      0.00000000
     47.15071429	     -5.28850584	     -3.12794802	     -4.65692177	      1.01638983	      0.93623516	      0.45664256	     37.84097106	     -6.14442818	     -7.10719338	     47.66488891	     47.66488891	     -1.18859810	     -6.21838943	     -3.21854384	      5.55974437	     -1.81261555	     -5.78392705	     14.13549619	     14.13549619	     16.01246733	     -9.76307052	      5.31076075	    -14.26458157	      6.39714959	      1.85022904	     -6.62828811	    -15.88290330	     -4.88097523	     35.39923063	     46.33175607	      0.00000000	      0.00000000	      3.85891543	    -16.00554319	     -2.72969301	    102.56092496	     47.81654661	      0.00000000	      0.00000000
